<svg xmlns="http://www.w3.org/2000/svg" viewBox="0 0 159.48 172.37"><defs><style>.cls-1{fill:#eee;}</style></defs><title>Asset 1</title><g id="Layer_2" data-name="Layer 2"><g id="Layer_2-2" data-name="Layer 2"><path class="cls-1" d="M75.46,170.87A20.59,20.59,0,0,1,64,167.38L10.64,131.64a20.68,20.68,0,0,1-9.09-18.51L5.83,49.07A20.65,20.65,0,0,1,17.3,31.94L74.92,3.62A20.61,20.61,0,0,1,95.5,5l53.34,35.74a20.66,20.66,0,0,1,9.09,18.5l-4.27,64.06a20.69,20.69,0,0,1-11.48,17.14L84.56,168.75A20.67,20.67,0,0,1,75.46,170.87Z"/><path d="M84,3A19,19,0,0,1,94.66,6.24L148,42a19.18,19.18,0,0,1,8.44,17.16l-4.28,64.06a19.18,19.18,0,0,1-10.64,15.89L83.9,167.41a19.28,19.28,0,0,1-8.44,2,19,19,0,0,1-10.64-3.24L11.48,130.39A19.17,19.17,0,0,1,3,113.23L7.32,49.17A19.18,19.18,0,0,1,18,33.29L75.58,5A19.28,19.28,0,0,1,84,3m0-3a22.09,22.09,0,0,0-9.76,2.27L16.64,30.59A22.15,22.15,0,0,0,4.33,49L.05,113a22.12,22.12,0,0,0,9.76,19.86l53.34,35.73a22.1,22.1,0,0,0,22.07,1.48l57.62-28.33a22.1,22.1,0,0,0,12.31-18.38l4.28-64.06a22.11,22.11,0,0,0-9.76-19.85L96.33,3.74A22.11,22.11,0,0,0,84,0Z"/></g></g></svg>